<?xml version="1.0" standalone="no"?>
<!DOCTYPE svg PUBLIC "-//W3C//DTD SVG 20010904//EN"
 "http://www.w3.org/TR/2001/REC-SVG-20010904/DTD/svg10.dtd">
<svg version="1.0" xmlns="http://www.w3.org/2000/svg"
 width="1080.000000pt" height="1080.000000pt" viewBox="0 0 1080.000000 1080.000000"
 preserveAspectRatio="xMidYMid meet">

<g transform="translate(0.000000,1080.000000) scale(0.100000,-0.100000)"
fill="#000000" stroke="none">
<path d="M6724 7897 c-495 -386 -1145 -893 -1443 -1127 -299 -234 -574 -449
-611 -478 l-69 -54 -1008 -8 c-554 -5 -1143 -9 -1308 -10 -178 0 -295 -4 -290
-9 6 -5 568 -13 1315 -19 l1305 -10 215 166 c458 353 1685 1305 2075 1610 226
176 411 318 413 317 2 -2 -79 -115 -179 -251 -451 -615 -941 -1288 -946 -1299
-3 -10 101 -12 504 -8 l508 5 -190 -193 c-361 -368 -379 -392 -66 -88 l313
304 -491 6 c-270 3 -493 7 -495 10 -3 2 56 85 131 184 128 171 625 837 1041
1398 106 141 188 257 184 256 -4 0 -412 -316 -908 -702z"/>
<path d="M7855 6088 c-130 -48 -216 -195 -185 -315 17 -70 45 -117 93 -159 48
-41 63 -50 199 -112 97 -45 172 -107 199 -167 25 -54 25 -156 0 -211 -22 -49
-92 -111 -140 -124 -144 -40 -270 49 -296 208 -4 26 -12 42 -18 39 -7 -2 -40
-15 -75 -27 l-64 -23 7 -36 c18 -102 97 -208 192 -259 179 -95 395 -43 507
122 114 168 74 383 -96 514 -29 22 -105 65 -168 95 -127 59 -174 101 -186 163
-21 113 88 206 183 157 32 -17 71 -66 86 -107 3 -9 112 28 130 44 14 12 -21
82 -61 123 -58 60 -105 80 -197 84 -44 1 -93 -2 -110 -9z"/>
<path d="M5090 5480 l0 -610 80 0 80 0 0 270 0 270 215 0 215 0 0 70 0 70
-215 0 -215 0 0 200 0 200 215 0 215 0 0 70 0 70 -295 0 -295 0 0 -610z"/>
<path d="M5820 5480 l0 -610 295 0 295 0 0 65 0 65 -215 0 -215 0 -2 543 -3
542 -77 3 -78 3 0 -611z"/>
<path d="M6891 6068 c-5 -13 -101 -275 -214 -583 -113 -308 -210 -572 -216
-587 l-11 -28 83 0 82 0 91 248 92 247 167 0 168 0 48 -135 c27 -74 67 -186
90 -247 l41 -113 79 0 c43 0 79 3 79 8 0 4 -98 277 -218 607 l-217 600 -68 3
c-62 3 -68 1 -76 -20z m133 -404 l54 -149 -59 -3 c-33 -2 -84 -2 -113 0 l-53
3 55 153 c30 84 57 151 58 149 2 -2 28 -70 58 -153z"/>
<path d="M8460 5480 l0 -610 80 0 80 0 0 270 0 270 245 0 245 0 0 -270 0 -270
80 0 80 0 0 610 0 611 -77 -3 -78 -3 -3 -267 -2 -268 -245 0 -245 0 0 270 0
270 -80 0 -80 0 0 -610z"/>
<path d="M1983 6060 c-86 -22 -128 -43 -210 -104 -165 -121 -253 -313 -240
-525 11 -170 59 -276 181 -396 132 -131 248 -179 436 -178 88 0 118 4 185 27
68 23 205 101 219 125 3 4 -7 17 -23 28 l-27 21 -57 -38 c-91 -61 -157 -83
-273 -88 -178 -8 -289 34 -410 153 -171 168 -211 405 -105 620 147 299 530
395 801 201 l48 -34 23 25 24 25 -34 29 c-53 44 -161 97 -232 114 -87 20 -218
18 -306 -5z"/>
<path d="M2700 5470 l0 -600 300 0 300 0 0 35 0 35 -265 0 -265 0 0 245 0 245
265 0 265 0 0 35 0 35 -265 0 -265 0 0 250 0 250 265 0 265 0 0 35 0 35 -300
0 -300 0 0 -600z"/>
<path d="M3490 5470 l0 -600 266 0 265 0 -3 33 -3 32 -227 3 -228 2 0 565 0
565 -35 0 -35 0 0 -600z"/>
<path d="M4120 5631 c0 -399 2 -445 18 -499 34 -107 113 -196 218 -244 41 -19
66 -23 154 -23 93 0 112 3 162 27 80 37 152 107 191 187 l32 66 3 462 3 463
-35 0 -35 0 -3 -457 c-3 -456 -3 -458 -26 -501 -33 -63 -84 -114 -144 -148
-48 -26 -62 -29 -143 -29 -75 0 -98 4 -140 24 -63 32 -124 93 -156 156 l-24
50 -3 453 -3 452 -34 0 -35 0 0 -439z"/>
<path d="M3965 4547 l-300 -294 160 -6 c88 -4 287 -7 443 -7 155 0 282 -3 282
-6 0 -7 -1 -9 -401 -564 -380 -527 -1011 -1408 -1035 -1445 -12 -20 -14 -26
-4 -19 133 100 2100 1669 2794 2227 l318 257 422 0 c456 0 1612 14 2191 27
l360 8 -255 6 c-359 10 -1899 29 -2365 30 l-390 0 -365 -288 c-431 -339 -1199
-949 -1821 -1444 -244 -195 -451 -359 -459 -364 -8 -5 1 13 21 40 117 161
1099 1574 1099 1582 0 3 -205 4 -455 2 -250 -2 -455 -3 -455 -1 0 3 342 363
464 490 134 138 35 46 -249 -231z"/>
</g>
</svg>
